<svg xmlns="http://www.w3.org/2000/svg" width="400" height="400" viewBox="0 0 400 400">
  <defs>
    <linearGradient id="gloveGradient" x1="0%" y1="0%" x2="100%" y2="100%">
      <stop offset="0%" stop-color="#0dcaf0" stop-opacity="0.8"/>
      <stop offset="100%" stop-color="#6610f2" stop-opacity="0.9"/>
    </linearGradient>
    <filter id="glow" x="-50%" y="-50%" width="200%" height="200%">
      <feGaussianBlur in="SourceGraphic" stdDeviation="10" result="blur"/>
      <feComposite in="SourceGraphic" in2="blur" operator="over"/>
    </filter>
  </defs>
  
  <!-- Glove Outline -->
  <path d="M200,100 L150,230 L130,350 L180,380 L220,380 L270,350 L250,230 L200,100" 
        fill="url(#gloveGradient)" stroke="white" stroke-width="2" />
  
  <!-- Finger outlines -->
  <path d="M150,230 L100,180" fill="none" stroke="white" stroke-width="2" />
  <path d="M160,190 L120,150" fill="none" stroke="white" stroke-width="2" />
  <path d="M180,170 L160,120" fill="none" stroke="white" stroke-width="2" />
  <path d="M220,170 L240,120" fill="none" stroke="white" stroke-width="2" />
  <path d="M250,230 L300,180" fill="none" stroke="white" stroke-width="2" />
  
  <!-- Pulse points and sensors (with animation) -->
  <circle class="pulse-point" cx="200" cy="250" r="15" fill="#dc3545" filter="url(#glow)" />
  <circle class="sensor" cx="170" cy="200" r="8" fill="#0dcaf0" />
  <circle class="sensor" cx="230" cy="200" r="8" fill="#0dcaf0" />
  <circle class="sensor" cx="200" cy="180" r="8" fill="#0dcaf0" />
  
  <!-- Circuit patterns -->
  <path class="circuit" d="M170,200 L200,250 L230,200" fill="none" stroke="#0dcaf0" stroke-width="2" />
  <path class="circuit" d="M200,180 L200,250" fill="none" stroke="#0dcaf0" stroke-width="2" />
  <path class="circuit" d="M200,250 L180,380" fill="none" stroke="#0dcaf0" stroke-width="2" />
  <path class="circuit" d="M200,250 L220,380" fill="none" stroke="#0dcaf0" stroke-width="2" />
</svg>
